<svg width="200" height="200" viewBox="0 0 200 200" fill="none" xmlns="http://www.w3.org/2000/svg">
<rect width="200" height="200" fill="#F3F4F6"/>
<path d="M80 100C80 89.5447 88.0001 81 100 81C111.956 81 120 89.5447 120 100C120 110.455 111.956 119 100 119C88.0001 119 80 110.455 80 100Z" fill="#D3457A"/>
<path d="M100 135C110.455 135 119 126.455 119 116C119 105.545 110.455 97 100 97C89.5447 97 81 105.545 81 116C81 126.455 89.5447 135 100 135Z" fill="#D3457A"/>
<path d="M100 150C110.455 150 119 141.455 119 131C119 120.545 110.455 112 100 112C89.5447 112 81 120.545 81 131C81 141.455 89.5447 150 100 150Z" fill="#D3457A"/>
</svg>
